<mxfile host="app.diagrams.net" modified="2021-03-08T10:33:46.877Z" agent="5.0 (Windows NT 10.0; Win64; x64) AppleWebKit/537.36 (KHTML, like Gecko) Chrome/89.0.4389.72 Safari/537.36 Edg/89.0.774.45" etag="1gQe5UnStOgDYOlPLfaV" version="14.4.4" type="github">
  <diagram name="Page-1" id="7e0a89b8-554c-2b80-1dc8-d5c74ca68de4">
    <mxGraphModel dx="982" dy="550" grid="1" gridSize="10" guides="1" tooltips="1" connect="1" arrows="1" fold="1" page="1" pageScale="1" pageWidth="1100" pageHeight="850" background="#ffffff" math="0" shadow="0">
      <root>
        <mxCell id="0" />
        <mxCell id="1" parent="0" />
        <mxCell id="cm3Hr6SO8K254G_bE61V-59" value="" style="rounded=0;whiteSpace=wrap;html=1;fontSize=10;direction=north;" parent="1" vertex="1">
          <mxGeometry x="460" y="290" width="40" height="55" as="geometry" />
        </mxCell>
        <mxCell id="cm3Hr6SO8K254G_bE61V-12" value="" style="rounded=0;whiteSpace=wrap;html=1;" parent="1" vertex="1">
          <mxGeometry x="230" y="130" width="70" height="120" as="geometry" />
        </mxCell>
        <mxCell id="cm3Hr6SO8K254G_bE61V-2" value="USB power" style="aspect=fixed;pointerEvents=1;shadow=0;dashed=0;html=1;strokeColor=none;labelPosition=center;verticalLabelPosition=bottom;verticalAlign=top;align=center;fillColor=#00188D;shape=mxgraph.mscae.enterprise.usb;direction=west;spacing=-3;" parent="1" vertex="1">
          <mxGeometry x="247.06" y="210" width="35.87" height="16.5" as="geometry" />
        </mxCell>
        <mxCell id="cm3Hr6SO8K254G_bE61V-7" value="&lt;font style=&quot;font-size: 10px&quot;&gt;Adapter&lt;/font&gt;" style="pointerEvents=1;verticalLabelPosition=bottom;shadow=0;dashed=0;align=center;html=1;verticalAlign=top;shape=mxgraph.electrical.signal_sources.ac_source;fontSize=10;spacing=-4;" parent="1" vertex="1">
          <mxGeometry x="245" y="140" width="40" height="40" as="geometry" />
        </mxCell>
        <mxCell id="cm3Hr6SO8K254G_bE61V-8" value="&lt;p style=&quot;line-height: 120%; font-size: 12px;&quot;&gt;Power management IC&lt;/p&gt;" style="rounded=1;whiteSpace=wrap;html=1;verticalAlign=bottom;fontSize=12;labelPosition=center;verticalLabelPosition=top;align=center;spacingTop=0;spacing=-36;" parent="1" vertex="1">
          <mxGeometry x="372" y="140" width="158" height="130" as="geometry" />
        </mxCell>
        <mxCell id="cm3Hr6SO8K254G_bE61V-40" value="" style="edgeStyle=orthogonalEdgeStyle;rounded=0;orthogonalLoop=1;jettySize=auto;html=1;fontSize=12;strokeWidth=2;" parent="1" source="cm3Hr6SO8K254G_bE61V-9" edge="1">
          <mxGeometry relative="1" as="geometry">
            <mxPoint x="530" y="187" as="targetPoint" />
          </mxGeometry>
        </mxCell>
        <mxCell id="cm3Hr6SO8K254G_bE61V-9" value="DC/DC" style="rounded=0;whiteSpace=wrap;html=1;" parent="1" vertex="1">
          <mxGeometry x="390" y="173" width="70" height="27" as="geometry" />
        </mxCell>
        <mxCell id="cm3Hr6SO8K254G_bE61V-10" value="" style="shape=flexArrow;endArrow=classic;html=1;width=13.6;endSize=13.468;" parent="1" edge="1">
          <mxGeometry width="50" height="50" relative="1" as="geometry">
            <mxPoint x="300" y="186.33" as="sourcePoint" />
            <mxPoint x="372" y="186.63000000000002" as="targetPoint" />
          </mxGeometry>
        </mxCell>
        <mxCell id="cm3Hr6SO8K254G_bE61V-11" value="" style="endArrow=none;dashed=1;html=1;" parent="1" edge="1">
          <mxGeometry width="50" height="50" relative="1" as="geometry">
            <mxPoint x="240.25" y="201.35000000000002" as="sourcePoint" />
            <mxPoint x="289.75" y="201.35000000000002" as="targetPoint" />
          </mxGeometry>
        </mxCell>
        <mxCell id="cm3Hr6SO8K254G_bE61V-45" value="" style="edgeStyle=orthogonalEdgeStyle;rounded=0;orthogonalLoop=1;jettySize=auto;html=1;fontSize=10;strokeWidth=2;" parent="1" source="cm3Hr6SO8K254G_bE61V-13" edge="1">
          <mxGeometry relative="1" as="geometry">
            <mxPoint x="480" y="290" as="targetPoint" />
            <Array as="points">
              <mxPoint x="480" y="280" />
              <mxPoint x="480" y="280" />
            </Array>
          </mxGeometry>
        </mxCell>
        <mxCell id="cm3Hr6SO8K254G_bE61V-13" value="&lt;font style=&quot;font-size: 12px;&quot;&gt;Battery FET&lt;/font&gt;" style="rounded=0;whiteSpace=wrap;html=1;fontSize=12;" parent="1" vertex="1">
          <mxGeometry x="455" y="220" width="50" height="30" as="geometry" />
        </mxCell>
        <mxCell id="cm3Hr6SO8K254G_bE61V-14" value="DC/DC 1" style="rounded=1;whiteSpace=wrap;html=1;fontSize=12;" parent="1" vertex="1">
          <mxGeometry x="590" y="140" width="60" height="26.5" as="geometry" />
        </mxCell>
        <mxCell id="cm3Hr6SO8K254G_bE61V-32" value="" style="shape=flexArrow;endArrow=classic;html=1;width=12;endSize=7;" parent="1" edge="1">
          <mxGeometry width="50" height="50" relative="1" as="geometry">
            <mxPoint x="530" y="186.36" as="sourcePoint" />
            <mxPoint x="570" y="186.36" as="targetPoint" />
          </mxGeometry>
        </mxCell>
        <mxCell id="cm3Hr6SO8K254G_bE61V-33" value="" style="shape=curlyBracket;whiteSpace=wrap;html=1;rounded=1;fontSize=12;size=0.5;" parent="1" vertex="1">
          <mxGeometry x="570" y="136.25" width="20" height="127.25" as="geometry" />
        </mxCell>
        <mxCell id="cm3Hr6SO8K254G_bE61V-34" value="DC/DC 2" style="rounded=1;whiteSpace=wrap;html=1;fontSize=12;" parent="1" vertex="1">
          <mxGeometry x="590" y="175.25" width="60" height="26.5" as="geometry" />
        </mxCell>
        <mxCell id="cm3Hr6SO8K254G_bE61V-35" value="DC/DC 3" style="rounded=1;whiteSpace=wrap;html=1;fontSize=12;" parent="1" vertex="1">
          <mxGeometry x="590" y="210" width="60" height="26.5" as="geometry" />
        </mxCell>
        <mxCell id="cm3Hr6SO8K254G_bE61V-36" value="&lt;font size=&quot;1&quot;&gt;&lt;b style=&quot;font-size: 25px&quot;&gt;...&lt;/b&gt;&lt;/font&gt;" style="text;html=1;strokeColor=none;fillColor=none;align=center;verticalAlign=middle;whiteSpace=wrap;rounded=0;fontSize=12;" parent="1" vertex="1">
          <mxGeometry x="600" y="236.5" width="40" height="20" as="geometry" />
        </mxCell>
        <mxCell id="cm3Hr6SO8K254G_bE61V-47" value="&lt;font&gt;&lt;font style=&quot;font-size: 14px&quot;&gt;V&lt;/font&gt;&lt;sub style=&quot;font-size: 11px&quot;&gt;IN&lt;/sub&gt;&lt;/font&gt;" style="text;html=1;strokeColor=none;fillColor=none;align=center;verticalAlign=middle;whiteSpace=wrap;rounded=0;fontSize=10;" parent="1" vertex="1">
          <mxGeometry x="300" y="146.5" width="40" height="20" as="geometry" />
        </mxCell>
        <mxCell id="cm3Hr6SO8K254G_bE61V-48" value="" style="endArrow=classic;html=1;fontSize=10;" parent="1" edge="1">
          <mxGeometry width="50" height="50" relative="1" as="geometry">
            <mxPoint x="310" y="210" as="sourcePoint" />
            <mxPoint x="350" y="210" as="targetPoint" />
          </mxGeometry>
        </mxCell>
        <mxCell id="cm3Hr6SO8K254G_bE61V-49" value="&lt;font style=&quot;font-size: 14px&quot;&gt;I&lt;/font&gt;&lt;sub&gt;IN&lt;/sub&gt;" style="edgeLabel;html=1;align=center;verticalAlign=middle;resizable=0;points=[];fontSize=10;" parent="cm3Hr6SO8K254G_bE61V-48" vertex="1" connectable="0">
          <mxGeometry x="0.6833" y="-1" relative="1" as="geometry">
            <mxPoint x="-13.67" y="12.25" as="offset" />
          </mxGeometry>
        </mxCell>
        <mxCell id="cm3Hr6SO8K254G_bE61V-50" value="&lt;font&gt;&lt;font style=&quot;font-size: 14px&quot;&gt;V&lt;/font&gt;&lt;sub style=&quot;font-size: 11px&quot;&gt;sys&lt;/sub&gt;&lt;/font&gt;" style="text;html=1;strokeColor=none;fillColor=none;align=center;verticalAlign=middle;whiteSpace=wrap;rounded=0;fontSize=10;" parent="1" vertex="1">
          <mxGeometry x="530" y="146.5" width="40" height="20" as="geometry" />
        </mxCell>
        <mxCell id="cm3Hr6SO8K254G_bE61V-51" value="" style="endArrow=classic;html=1;fontSize=10;" parent="1" edge="1">
          <mxGeometry width="50" height="50" relative="1" as="geometry">
            <mxPoint x="530" y="210" as="sourcePoint" />
            <mxPoint x="570" y="210" as="targetPoint" />
          </mxGeometry>
        </mxCell>
        <mxCell id="cm3Hr6SO8K254G_bE61V-52" value="&lt;font style=&quot;font-size: 14px&quot;&gt;I&lt;/font&gt;&lt;sub&gt;sys&lt;/sub&gt;" style="edgeLabel;html=1;align=center;verticalAlign=middle;resizable=0;points=[];fontSize=10;" parent="cm3Hr6SO8K254G_bE61V-51" vertex="1" connectable="0">
          <mxGeometry x="0.6833" y="-1" relative="1" as="geometry">
            <mxPoint x="-13.67" y="12.25" as="offset" />
          </mxGeometry>
        </mxCell>
        <mxCell id="cm3Hr6SO8K254G_bE61V-54" value="" style="edgeStyle=orthogonalEdgeStyle;rounded=0;orthogonalLoop=1;jettySize=auto;html=1;fontSize=10;spacingRight=0;horizontal=1;strokeWidth=2;" parent="1" edge="1">
          <mxGeometry relative="1" as="geometry">
            <mxPoint x="479.9999999999999" y="187.68" as="sourcePoint" />
            <mxPoint x="479.9999999999999" y="216.5" as="targetPoint" />
            <Array as="points">
              <mxPoint x="480" y="210" />
              <mxPoint x="480" y="210" />
            </Array>
          </mxGeometry>
        </mxCell>
        <mxCell id="cm3Hr6SO8K254G_bE61V-57" value="" style="endArrow=classic;html=1;fontSize=10;exitX=0.007;exitY=0.357;exitDx=0;exitDy=0;exitPerimeter=0;strokeWidth=2;" parent="1" source="cm3Hr6SO8K254G_bE61V-8" edge="1">
          <mxGeometry width="50" height="50" relative="1" as="geometry">
            <mxPoint x="340" y="236.5" as="sourcePoint" />
            <mxPoint x="390" y="186.5" as="targetPoint" />
          </mxGeometry>
        </mxCell>
        <mxCell id="cm3Hr6SO8K254G_bE61V-58" value="" style="verticalLabelPosition=bottom;shadow=0;dashed=0;align=center;fillColor=#000000;html=1;verticalAlign=top;strokeWidth=1;shape=mxgraph.electrical.miscellaneous.monocell_battery;fontSize=10;direction=north;" parent="1" vertex="1">
          <mxGeometry x="466.25" y="301.25" width="27.49" height="32.5" as="geometry" />
        </mxCell>
        <mxCell id="cm3Hr6SO8K254G_bE61V-60" value="&lt;font style=&quot;font-size: 16px&quot;&gt;Battery&lt;/font&gt;" style="text;html=1;strokeColor=none;fillColor=none;align=center;verticalAlign=middle;whiteSpace=wrap;rounded=0;fontSize=10;" parent="1" vertex="1">
          <mxGeometry x="405" y="307.5" width="40" height="20" as="geometry" />
        </mxCell>
        <mxCell id="XD-bQ97r92dynbyuZ9xf-1" value="" style="endArrow=classic;html=1;fontSize=9;strokeWidth=4;" parent="1" edge="1">
          <mxGeometry relative="1" as="geometry">
            <mxPoint x="320" y="130" as="sourcePoint" />
            <mxPoint x="560" y="130" as="targetPoint" />
          </mxGeometry>
        </mxCell>
        <mxCell id="XD-bQ97r92dynbyuZ9xf-2" value="Path 1" style="edgeLabel;resizable=0;html=1;align=center;verticalAlign=middle;fontStyle=3" parent="XD-bQ97r92dynbyuZ9xf-1" connectable="0" vertex="1">
          <mxGeometry relative="1" as="geometry" />
        </mxCell>
        <mxCell id="XD-bQ97r92dynbyuZ9xf-3" value="" style="endArrow=classic;html=1;fontSize=9;strokeWidth=4;" parent="1" edge="1">
          <mxGeometry relative="1" as="geometry">
            <mxPoint x="290" y="256.5" as="sourcePoint" />
            <mxPoint x="440" y="297" as="targetPoint" />
            <Array as="points">
              <mxPoint x="410" y="257" />
            </Array>
          </mxGeometry>
        </mxCell>
        <mxCell id="XD-bQ97r92dynbyuZ9xf-4" value="Path 2" style="edgeLabel;resizable=0;html=1;align=center;verticalAlign=middle;fontStyle=3" parent="XD-bQ97r92dynbyuZ9xf-3" connectable="0" vertex="1">
          <mxGeometry relative="1" as="geometry">
            <mxPoint x="-25" y="-0.35" as="offset" />
          </mxGeometry>
        </mxCell>
      </root>
    </mxGraphModel>
  </diagram>
</mxfile>
